<?xml version="1.0" encoding="UTF-8" standalone="no"?>
<!-- Created with Inkscape (http://www.inkscape.org/) -->

<svg
   xmlns:dc="http://purl.org/dc/elements/1.1/"
   xmlns:cc="http://creativecommons.org/ns#"
   xmlns:rdf="http://www.w3.org/1999/02/22-rdf-syntax-ns#"
   xmlns:svg="http://www.w3.org/2000/svg"
   xmlns="http://www.w3.org/2000/svg"
   xmlns:sodipodi="http://sodipodi.sourceforge.net/DTD/sodipodi-0.dtd"
   xmlns:inkscape="http://www.inkscape.org/namespaces/inkscape"
   width="202mm"
   height="297mm"
   viewBox="0 0 202 297"
   version="1.1"
   id="svg5278"
   inkscape:version="0.92.4 (5da689c313, 2019-01-14)"
   sodipodi:docname="nvsletters.svg">
  <defs
     id="defs5272">
    <inkscape:path-effect
       effect="spiro"
       id="path-effect5987"
       is_visible="true" />
    <inkscape:path-effect
       effect="spiro"
       id="path-effect5983"
       is_visible="true" />
    <inkscape:path-effect
       effect="spiro"
       id="path-effect5975"
       is_visible="true" />
    <inkscape:path-effect
       effect="spiro"
       id="path-effect5971"
       is_visible="true" />
    <inkscape:path-effect
       effect="spiro"
       id="path-effect5967"
       is_visible="true" />
    <inkscape:path-effect
       effect="spiro"
       id="path-effect5963"
       is_visible="true" />
    <inkscape:path-effect
       effect="spiro"
       id="path-effect5955"
       is_visible="true" />
    <inkscape:path-effect
       is_visible="true"
       id="path-effect5951"
       effect="spiro" />
    <inkscape:path-effect
       is_visible="true"
       id="path-effect5945"
       effect="spiro" />
    <inkscape:path-effect
       is_visible="true"
       id="path-effect5941"
       effect="spiro" />
    <inkscape:path-effect
       is_visible="true"
       id="path-effect5937"
       effect="spiro" />
    <inkscape:path-effect
       is_visible="true"
       id="path-effect5933"
       effect="spiro" />
    <inkscape:path-effect
       effect="spiro"
       id="path-effect5913"
       is_visible="true" />
    <inkscape:path-effect
       effect="spiro"
       id="path-effect5906"
       is_visible="true" />
    <inkscape:path-effect
       effect="spiro"
       id="path-effect5902"
       is_visible="true" />
    <inkscape:path-effect
       effect="spiro"
       id="path-effect5891"
       is_visible="true" />
    <inkscape:path-effect
       effect="spiro"
       id="path-effect5887"
       is_visible="true" />
    <inkscape:path-effect
       effect="spiro"
       id="path-effect5883"
       is_visible="true" />
    <inkscape:path-effect
       effect="spiro"
       id="path-effect5879"
       is_visible="true" />
    <inkscape:path-effect
       effect="spiro"
       id="path-effect5875"
       is_visible="true" />
    <inkscape:path-effect
       effect="spiro"
       id="path-effect5843"
       is_visible="true" />
  </defs>
  <sodipodi:namedview
     id="base"
     pagecolor="#ffffff"
     bordercolor="#666666"
     borderopacity="1.0"
     inkscape:pageopacity="0.0"
     inkscape:pageshadow="2"
     inkscape:zoom="2"
     inkscape:cx="-222.75216"
     inkscape:cy="616.54356"
     inkscape:document-units="mm"
     inkscape:current-layer="svg5278"
     showgrid="false"
     fit-margin-top="0"
     fit-margin-left="0"
     fit-margin-right="0"
     fit-margin-bottom="0"
     showborder="false"
     showguides="true"
     inkscape:guide-bbox="true"
     inkscape:snap-nodes="false"
     inkscape:snap-others="false"
     inkscape:window-width="1920"
     inkscape:window-height="1017"
     inkscape:window-x="1352"
     inkscape:window-y="-8"
     inkscape:window-maximized="1" />
  <metadata
     id="metadata5275">
    <rdf:RDF>
      <cc:Work
         rdf:about="">
        <dc:format>image/svg+xml</dc:format>
        <dc:type
           rdf:resource="http://purl.org/dc/dcmitype/StillImage" />
        <dc:title></dc:title>
      </cc:Work>
    </rdf:RDF>
  </metadata>
  <path
     transform="translate(-22.208755,47.684635)"
     inkscape:original-d="m -2.6192413,72.306499 c 0,0 3.7885455,16.837978 3.7885455,16.837978 0,0 7.1561415,0 7.1561415,0 0,0 9.0270283,-16.837978 9.0270283,-16.837978 0,0 -3.975634,0 -3.975634,0 0,0 -6.5481035,9.822154 -6.5481035,9.822154 0,0 -2.0112032,-9.822154 -2.0112032,-9.822154 0,0 -7.4367746,0 -7.4367746,0 z"
     inkscape:path-effect="#path-effect5951"
     inkscape:connector-curvature="0"
     id="path5949"
     d="M -2.6192413,72.306499 1.1693042,89.144477 H 8.3254457 L 17.352474,72.306499 H 13.37684 L 6.8287365,82.128653 4.8175333,72.306499 Z"
     style="fill:#aaf864;fill-opacity:1;stroke:#000000;stroke-width:0.26458332px;stroke-linecap:butt;stroke-linejoin:miter;stroke-opacity:1"
     inkscape:export-xdpi="96"
     inkscape:export-ydpi="96" />
  <path
     inkscape:connector-curvature="0"
     id="path5947"
     d="m -40.02212,119.87819 -4.490165,16.83773 h 8.232056 l 1.028878,-5.42551 c 1.559568,0.049 3.118734,0.11134 4.677234,0.18707 0.467629,0.0227 0.937159,0.0466 1.403015,0 0.692424,-0.0693 1.367949,-0.29599 1.964221,-0.65474 0.648935,-0.39045 1.204578,-0.93851 1.5906,-1.59009 0.663358,-1.11969 0.79823,-2.46104 1.028878,-3.74189 0.219165,-1.21708 0.537132,-2.46985 0.245463,-3.67161 -0.08005,-0.32985 -0.204627,-0.64742 -0.338997,-0.95911 -0.09897,-0.22957 -0.205878,-0.46042 -0.37052,-0.64854 -0.08232,-0.0941 -0.178525,-0.17649 -0.288355,-0.23616 -0.109829,-0.0597 -0.233647,-0.0957 -0.358634,-0.0972 -0.0078,-9e-5 -0.01546,-5e-5 -0.02325,0 -4.766811,0.0273 -9.533609,0.0273 -14.30042,0 z m 5.752621,2.71249 2.665987,0.0935 c 0.155488,0.5628 0.234626,1.14677 0.234094,1.73065 -6.98e-4,0.76679 -0.137321,1.52666 -0.187068,2.29184 -0.02482,0.3817 -0.02847,0.76685 -0.102837,1.14205 -0.03718,0.18759 -0.09393,0.37404 -0.176216,0.54673 -0.08229,0.1727 -0.190066,0.33127 -0.329179,0.46251 -0.15905,0.15004 -0.356372,0.25685 -0.567407,0.31367 -0.211036,0.0568 -0.435655,0.0639 -0.64854,0.014 h -1.730643 z"
     style="fill:#aaf864;fill-opacity:1;stroke:#000000;stroke-width:0.26458332px;stroke-linecap:butt;stroke-linejoin:miter;stroke-opacity:1"
     inkscape:export-xdpi="96"
     inkscape:export-ydpi="96" />
  <path
     transform="translate(-22.162745,47.571705)"
     inkscape:original-d="m -35.321875,72.306499 c 0,0 -2.513541,16.837978 -2.513541,16.837978 0,0 7.408333,0 7.408333,0 0,0 2.116667,-7.912196 2.116667,-7.912196 0,0 6.482291,-0.132291 6.482291,-0.132291 0,0 1.719792,-2.248959 1.719792,-2.248959 0,0 -7.540625,0.132292 -7.540625,0.132292 0,0 1.058333,-3.704167 1.058333,-3.704167 0,0 7.540625,0 7.540625,0 0,0 1.190625,-2.972657 1.190625,-2.972657 0,0 -17.4625,0 -17.4625,0 z"
     inkscape:path-effect="#path-effect5945"
     inkscape:connector-curvature="0"
     id="path5943"
     d="m -35.321875,72.306499 -2.513541,16.837978 h 7.408333 l 2.116667,-7.912196 6.482291,-0.132291 1.719792,-2.248959 -7.540625,0.132292 1.058333,-3.704167 H -19.05 l 1.190625,-2.972657 z"
     style="fill:#aaf864;fill-opacity:1;stroke:#000000;stroke-width:0.26458332px;stroke-linecap:butt;stroke-linejoin:miter;stroke-opacity:1"
     inkscape:export-xdpi="96"
     inkscape:export-ydpi="96" />
  <path
     sodipodi:nodetypes="ccccccccccssscccccc"
     transform="translate(-21.567433,47.571705)"
     inkscape:original-d="m -35.917187,72.306499 h -20.306771 l -0.859895,8.727345 c 0,0 0.234125,0.650494 0.233861,1.069682 -2.65e-4,0.41919 1.882805,1.046985 1.882805,1.046985 l 7.342188,0.06615 -0.132292,3.373438 -9.988021,-0.06615 -2.778125,2.620529 h 17.844702 c 0,0 1.205563,-2.188255 2.065194,-3.281987 0.859631,-1.09373 1.009152,-2.703569 1.560102,-3.938028 0.550949,-1.234456 0.302297,-0.0015 0.125643,-1.147747 -0.176654,-1.146263 -0.545216,-1.819413 -0.545216,-1.819413 l -9.171573,0.04345 0.859896,-3.955455 9.789583,-0.132291 2.077919,-2.606505 z"
     inkscape:path-effect="#path-effect5941"
     inkscape:connector-curvature="0"
     id="path5939"
     d="m -35.917187,72.306499 h -20.306771 l -0.859895,8.727345 c -0.02315,0.368998 0.05884,0.744011 0.233861,1.069682 0.179546,0.334082 0.456517,0.615058 0.787987,0.799381 0.33147,0.184323 0.71629,0.271354 1.094818,0.247604 l 7.342188,0.06615 -0.132292,3.373438 -9.988021,-0.06615 -2.778125,2.620529 h 17.844702 c 0.756745,-1.048947 1.446984,-2.145867 2.065194,-3.281987 0.677336,-1.244779 1.272767,-2.550332 1.560102,-3.938028 0.0782,-0.377676 0.133397,-0.762138 0.125643,-1.147747 -0.01289,-0.640805 -0.20357,-1.277126 -0.545216,-1.819413 l -9.171573,0.04345 0.859896,-3.955455 9.789583,-0.132291 2.077919,-2.606505 z"
     style="fill:#aaf864;fill-opacity:1;stroke:#000000;stroke-width:0.26458332px;stroke-linecap:butt;stroke-linejoin:miter;stroke-opacity:1"
     inkscape:export-xdpi="96"
     inkscape:export-ydpi="96" />
  <path
     sodipodi:nodetypes="ccccccccccc"
     transform="translate(-23.722766,47.571705)"
     inkscape:original-d="m -105.51801,89.144477 6.735194,-16.837978 h 7.10937 l 2.61924,9.167344 4.864306,-9.167344 h 5.799749 l -7.29646,16.837978 h -7.857722 l -2.80633,-7.670633 -3.554685,7.483544 z"
     inkscape:path-effect="#path-effect5933"
     inkscape:connector-curvature="0"
     id="path5931"
     d="m -105.51801,89.144477 6.735194,-16.837978 h 7.10937 l 2.61924,9.167344 4.864306,-9.167344 h 5.799749 l -7.29646,16.837978 h -7.857722 l -2.80633,-7.670633 -3.554685,7.483544 z"
     style="fill:#aaf864;fill-opacity:1;stroke:#000000;stroke-width:0.26458332px;stroke-linecap:butt;stroke-linejoin:miter;stroke-opacity:1"
     inkscape:export-xdpi="96"
     inkscape:export-ydpi="96" />
  <g
     inkscape:label="Layer 1"
     inkscape:groupmode="layer"
     id="layer1"
     style="display:inline;opacity:1" />
  <path
     style="fill:#00be12;fill-opacity:1;stroke:#000000;stroke-width:0;stroke-linecap:butt;stroke-linejoin:miter;stroke-miterlimit:4;stroke-dasharray:none;stroke-opacity:1"
     d="m -3.4395833,182.99764 c 0.4464603,-0.006 0.8929928,-0.006 1.3394531,0 0.4189399,0.005 0.8380895,0.0157 1.25677084,0 0.29228179,-0.0109 0.58598252,-0.0344 0.87643228,0 0.15521339,0.0184 0.31101095,0.0543 0.44648437,0.1323 0.14997714,0.0863 0.26766444,0.21993 0.36380207,0.3638 0.15249386,0.22821 0.25634594,0.48517 0.34726564,0.74414 0.1104074,0.31448 0.2033576,0.63501 0.2811198,0.95911 0.066504,0.27718 0.1220975,0.5585 0.1322916,0.84336 0.014311,0.39989 -0.060968,0.79689 -0.1322916,1.19063 -0.1657426,0.91497 -0.311845,1.83362 -0.49609377,2.74505 -0.10739496,0.53125 -0.22821091,1.06158 -0.41341145,1.57096 -0.15394822,0.42342 -0.35370294,0.83351 -0.62838541,1.19063 -0.24790756,0.32231 -0.55311474,0.59677 -0.87643228,0.84336 -0.33904009,0.25858 -0.70130839,0.48931 -1.09140619,0.66146 -0.4838969,0.21355 -1.0091121,0.33494 -1.5378907,0.34726 -0.364191,0.008 -0.7274424,-0.0342 -1.0914062,-0.0496 -0.3745546,-0.0159 -0.7498384,-0.003 -1.1244791,-0.0165 -0.099311,-0.004 -0.1985532,-0.009 -0.2976563,-0.0165 l 1.7249793,-0.56058 c 0.5425128,-0.13628 1.0671025,-0.34374 1.5560891,-0.61537 0.8875374,-0.49303 1.6782706,-1.23386 2.02283708,-2.18889 0.04229,-0.11721 0.0776208,-0.2368 0.11437838,-0.35586 0.1782659,-0.57744 0.39076131,-1.14485 0.53740407,-1.73112 0.14664275,-0.58626 0.22647268,-1.19868 0.13374109,-1.79585 -0.11473064,-0.73884 -0.4883729,-1.41664 -0.95011617,-2.00472 -0.31086675,-0.39592 -0.66564215,-0.76006 -1.07320775,-1.0555 -0.2914902,-0.2113 -0.6085452,-0.38642 -0.9390525,-0.52917 -0.371396,-0.16041 -0.7588581,-0.27986 -1.1426776,-0.40773 -0.2381696,-0.0794 -0.4752234,-0.16204 -0.7110677,-0.24805 l 1.372526,-0.0165 z"
     id="path5981"
     inkscape:connector-curvature="0"
     inkscape:path-effect="#path-effect5983"
     inkscape:original-d="m -3.4395833,182.99764 c 0,0 0.8932333,-2.6e-4 1.3394531,0 0.4462198,2.7e-4 0.8381118,-2.6e-4 1.25677084,0 0.41865901,2.7e-4 0.58455277,-2.6e-4 0.87643228,0 0.29187952,2.7e-4 0.29792083,0.0879 0.44648437,0.1323 0.14856354,0.0444 0.24279931,0.24227 0.36380207,0.3638 0.12100277,0.12153 0.23177504,0.49583 0.34726564,0.74414 0.1154906,0.24831 0.1876778,0.63915 0.2811198,0.95911 0.093442,0.31997 0.088459,0.56198 0.1322916,0.84336 0.043833,0.28139 -0.08793,0.79349 -0.1322916,1.19063 -0.044362,0.39714 -0.3304646,1.82977 -0.49609377,2.74505 -0.16562917,0.91528 -0.27534306,1.04705 -0.41341145,1.57096 -0.1380684,0.52392 -0.41865903,0.79349 -0.62838541,1.19063 -0.2097264,0.39714 -0.5840236,0.56197 -0.87643228,0.84336 -0.29240869,0.28138 -0.72733959,0.44071 -1.09140619,0.66146 -0.3640667,0.22075 -1.0249959,0.23124 -1.5378907,0.34726 -0.5128947,0.11602 -0.7273395,-0.0333 -1.0914062,-0.0496 -0.3640667,-0.0163 -0.7493881,-0.0113 -1.1244791,-0.0165 -0.3750911,-0.005 -0.2976563,-0.0165 -0.2976563,-0.0165 l 1.7249793,-0.56058 c 0,0 0.9830897,-0.52744 1.5560891,-0.61537 0.5729992,-0.0879 1.637251,-1.88047 2.02283708,-2.18889 0.3855861,-0.30841 -0.18852545,0.35494 0.11437838,-0.35586 0.3029038,-0.71081 0.43989933,-2.50748 0.67114516,-3.52697 0.23124583,-1.01948 -0.77346269,-1.13406 -0.95011617,-2.00472 -0.17665345,-0.87065 -0.76977475,-0.71952 -1.07320775,-1.0555 -0.303433,-0.33598 -0.50884,-0.35304 -0.9390525,-0.52917 -0.4302125,-0.17612 -0.7069531,-0.30326 -1.1426776,-0.40773 -0.4357246,-0.10447 -0.7110677,-0.24805 -0.7110677,-0.24805 l 1.372526,-0.0165 z"
     sodipodi:nodetypes="ccccsssccsscscsssccccccccscsccc"
     transform="translate(-25.796875,-63.103125)"
     inkscape:export-xdpi="96"
     inkscape:export-ydpi="96" />
  <path
     style="fill:none;stroke:#000000;stroke-width:0.26458332px;stroke-linecap:butt;stroke-linejoin:miter;stroke-opacity:1"
     d="m -40.02212,119.87819 -4.490165,16.83773 h 8.232056 l 1.028878,-5.42551 c 1.559568,0.049 3.118734,0.11134 4.677234,0.18707 0.467629,0.0227 0.937159,0.0466 1.403015,0 0.692424,-0.0693 1.367949,-0.29599 1.964221,-0.65474 0.648935,-0.39045 1.204578,-0.93851 1.5906,-1.59009 0.663358,-1.11969 0.79823,-2.46104 1.028878,-3.74189 0.219165,-1.21708 0.537132,-2.46985 0.245463,-3.67161 -0.08005,-0.32985 -0.204627,-0.64742 -0.338997,-0.95911 -0.09897,-0.22957 -0.205878,-0.46042 -0.37052,-0.64854 -0.08232,-0.0941 -0.178525,-0.17649 -0.288355,-0.23616 -0.109829,-0.0597 -0.233647,-0.0957 -0.358634,-0.0972 -0.0078,-9e-5 -0.01546,-5e-5 -0.02325,0 -4.766811,0.0273 -9.533609,0.0273 -14.30042,0 z m 5.752621,2.71249 2.665987,0.0935 c 0.155488,0.5628 0.234626,1.14677 0.234094,1.73065 -6.98e-4,0.76679 -0.137321,1.52666 -0.187068,2.29184 -0.02482,0.3817 -0.02847,0.76685 -0.102837,1.14205 -0.03718,0.18759 -0.09393,0.37404 -0.176216,0.54673 -0.08229,0.1727 -0.190066,0.33127 -0.329179,0.46251 -0.15905,0.15004 -0.356372,0.25685 -0.567407,0.31367 -0.211036,0.0568 -0.435655,0.0639 -0.64854,0.014 h -1.730643 z"
     id="path5900"
     inkscape:connector-curvature="0"
     inkscape:export-xdpi="96"
     inkscape:export-ydpi="96" />
  <g
     inkscape:groupmode="layer"
     id="layer9"
     inkscape:label="outline" />
  <path
     style="fill:#00be12;fill-opacity:1;stroke:#000000;stroke-width:0;stroke-linecap:butt;stroke-linejoin:miter;stroke-miterlimit:4;stroke-dasharray:none;stroke-opacity:1"
     d="m -82.085153,183.10976 -8.920271,16.65373 7.330018,-0.0496 7.202913,-16.69766 -5.61266,0.0935 z"
     id="path5953"
     inkscape:connector-curvature="0"
     inkscape:path-effect="#path-effect5955"
     inkscape:original-d="m -82.085153,183.10976 -8.920271,16.65373 7.330018,-0.0496 7.202913,-16.69766 -5.61266,0.0935 z"
     sodipodi:nodetypes="cccccc"
     transform="translate(-25.796875,-63.103125)"
     inkscape:export-xdpi="96"
     inkscape:export-ydpi="96" />
  <path
     style="fill:none;stroke:#000000;stroke-width:0.26458332px;stroke-linecap:butt;stroke-linejoin:miter;stroke-opacity:1"
     d="m -105.51801,89.144477 6.735194,-16.837978 h 7.10937 l 2.61924,9.167344 4.864306,-9.167344 h 5.799749 l -7.29646,16.837978 h -7.857722 l -2.80633,-7.670633 -3.554685,7.483544 z"
     id="path5873"
     inkscape:connector-curvature="0"
     inkscape:path-effect="#path-effect5875"
     inkscape:original-d="m -105.51801,89.144477 6.735194,-16.837978 h 7.10937 l 2.61924,9.167344 4.864306,-9.167344 h 5.799749 l -7.29646,16.837978 h -7.857722 l -2.80633,-7.670633 -3.554685,7.483544 z"
     transform="translate(-23.722766,47.571705)"
     sodipodi:nodetypes="ccccccccccc"
     inkscape:export-xdpi="96"
     inkscape:export-ydpi="96" />
  <path
     transform="translate(-22.600234,47.571705)"
     inkscape:original-d="m -79.512683,72.306499 c 0,0 2.80633,16.837978 2.80633,16.837978 0,0 9.541523,0 9.541523,0 0,0 11.973673,-16.837978 11.973673,-16.837978 0,0 -5.612659,0 -5.612659,0 0,0 -7.857725,10.664055 -7.857725,10.664055 0,0 -0.935442,-10.664055 -0.935442,-10.664055 0,0 -9.9157,0 -9.9157,0 z"
     inkscape:path-effect="#path-effect5937"
     inkscape:connector-curvature="0"
     id="path5935"
     d="m -79.512683,72.306499 2.80633,16.837978 h 9.541523 l 11.973673,-16.837978 h -5.612659 l -7.857725,10.664055 -0.935442,-10.664055 z"
     style="fill:#aaf864;fill-opacity:1;stroke:#000000;stroke-width:0.26458332px;stroke-linecap:butt;stroke-linejoin:miter;stroke-opacity:1"
     inkscape:export-xdpi="96"
     inkscape:export-ydpi="96" />
  <path
     style="fill:#00be12;fill-opacity:1;stroke:#000000;stroke-width:0;stroke-linecap:butt;stroke-linejoin:miter;stroke-miterlimit:4;stroke-dasharray:none;stroke-opacity:1"
     d="m -57.576537,182.92267 -7.939577,10.85115 -1.110837,5.96345 2.654319,0.0819 12.048153,-16.85455 -5.652058,-0.0419 z"
     id="path5961"
     inkscape:connector-curvature="0"
     inkscape:path-effect="#path-effect5963"
     inkscape:original-d="m -57.576537,182.92267 c 0,0 -7.939577,10.85115 -7.939577,10.85115 0,0 -1.110837,5.96345 -1.110837,5.96345 0,0 2.654319,0.0819 2.654319,0.0819 0,0 12.048153,-16.85455 12.048153,-16.85455 0,0 -5.652058,-0.0419 -5.652058,-0.0419 z"
     transform="translate(-25.796875,-63.103125)"
     inkscape:export-xdpi="96"
     inkscape:export-ydpi="96" />
  <path
     style="fill:none;stroke:#000000;stroke-width:0.26458332px;stroke-linecap:butt;stroke-linejoin:miter;stroke-opacity:1"
     d="m -79.512683,72.306499 2.80633,16.837978 h 9.541523 l 11.973673,-16.837978 h -5.612659 l -7.857725,10.664055 -0.935442,-10.664055 z"
     id="path5877"
     inkscape:connector-curvature="0"
     inkscape:path-effect="#path-effect5879"
     inkscape:original-d="m -79.512683,72.306499 c 0,0 2.80633,16.837978 2.80633,16.837978 0,0 9.541523,0 9.541523,0 0,0 11.973673,-16.837978 11.973673,-16.837978 0,0 -5.612659,0 -5.612659,0 0,0 -7.857725,10.664055 -7.857725,10.664055 0,0 -0.935442,-10.664055 -0.935442,-10.664055 0,0 -9.9157,0 -9.9157,0 z"
     transform="translate(-22.600234,47.571705)"
     inkscape:export-xdpi="96"
     inkscape:export-ydpi="96" />
  <path
     style="fill:#00be12;fill-opacity:1;stroke:#000000;stroke-width:0;stroke-linecap:butt;stroke-linejoin:miter;stroke-miterlimit:4;stroke-dasharray:none;stroke-opacity:1"
     d="m -43.193229,182.96457 11.344011,0.0992 -2.050521,2.54662 -9.657292,0.13229 0.363802,-2.77813 z"
     id="path5965"
     inkscape:connector-curvature="0"
     inkscape:path-effect="#path-effect5967"
     inkscape:original-d="m -43.193229,182.96457 c 0,0 11.344011,0.0992 11.344011,0.0992 0,0 -2.050521,2.54662 -2.050521,2.54662 0,0 -9.657292,0.13229 -9.657292,0.13229 0,0 0.363802,-2.77813 0.363802,-2.77813 z"
     transform="matrix(1.0079899,0,0,1,-25.542403,-63.103125)"
     inkscape:export-xdpi="96"
     inkscape:export-ydpi="96" />
  <path
     style="fill:#00be12;fill-opacity:1;stroke:#000000;stroke-width:0;stroke-linecap:butt;stroke-linejoin:miter;stroke-miterlimit:4;stroke-dasharray:none;stroke-opacity:1"
     d="m -44.416927,189.71145 9.128125,-0.0992 c 0.115029,0.15516 0.214877,0.32158 0.297657,0.49609 0.276401,0.5827 0.356233,1.24491 0.309583,1.88815 -0.08884,1.22502 -0.613757,2.37157 -1.15761,3.47284 -0.276385,0.55966 -0.559973,1.11599 -0.865285,1.66041 -0.538737,0.96066 -1.144854,1.88352 -1.812423,2.75956 -1.360004,-0.0373 -2.720389,-0.0607 -4.080872,-0.0702 -0.270147,-0.002 -0.540298,-0.003 -0.810451,-0.004 l -0.198437,0.0165 -1.372526,0.0165 0.08268,-2.61276 1.405599,0.0496 0.09922,-3.40651 -1.339453,-0.0165 0.314192,-4.15065 z"
     id="path5969"
     inkscape:connector-curvature="0"
     inkscape:path-effect="#path-effect5971"
     inkscape:original-d="m -44.416927,189.71145 c 0,0 9.128125,-0.0992 9.128125,-0.0992 0,0 0.198702,0.33046 0.297657,0.49609 0.09895,0.16563 0.206652,1.25851 0.309583,1.88815 0.102931,0.62965 -0.771477,2.31496 -1.15761,3.47284 -0.386136,1.15787 -0.576593,1.10667 -0.865285,1.66041 -0.288693,0.55373 -1.812423,2.75956 -1.812423,2.75956 0,0 -4.080872,-0.0702 -4.080872,-0.0702 0,0 -0.810451,-0.004 -0.810451,-0.004 0,0 -0.198437,0.0165 -0.198437,0.0165 0,0 -1.372526,0.0165 -1.372526,0.0165 0,0 0.08268,-2.61276 0.08268,-2.61276 0,0 1.405599,0.0496 1.405599,0.0496 0,0 0.09922,-3.40651 0.09922,-3.40651 0,0 -1.339453,-0.0165 -1.339453,-0.0165 0,0 0.314192,-4.15065 0.314192,-4.15065 z"
     transform="matrix(1.0136096,0,0,1,-25.325042,-63.103125)"
     inkscape:export-xdpi="96"
     inkscape:export-ydpi="96" />
  <path
     style="fill:none;stroke:#000000;stroke-width:0.26458332px;stroke-linecap:butt;stroke-linejoin:miter;stroke-opacity:1"
     d="m -35.917187,72.306499 h -20.306771 l -0.859895,8.727345 c -0.02315,0.368998 0.05884,0.744011 0.233861,1.069682 0.179546,0.334082 0.456517,0.615058 0.787987,0.799381 0.33147,0.184323 0.71629,0.271354 1.094818,0.247604 l 7.342188,0.06615 -0.132292,3.373438 -9.988021,-0.06615 -2.778125,2.620529 h 17.844702 c 0.756745,-1.048947 1.446984,-2.145867 2.065194,-3.281987 0.677336,-1.244779 1.272767,-2.550332 1.560102,-3.938028 0.0782,-0.377676 0.133397,-0.762138 0.125643,-1.147747 -0.01289,-0.640805 -0.20357,-1.277126 -0.545216,-1.819413 l -9.171573,0.04345 0.859896,-3.955455 9.789583,-0.132291 2.077919,-2.606505 z"
     id="path5881"
     inkscape:connector-curvature="0"
     inkscape:path-effect="#path-effect5883"
     inkscape:original-d="m -35.917187,72.306499 h -20.306771 l -0.859895,8.727345 c 0,0 0.234125,0.650494 0.233861,1.069682 -2.65e-4,0.41919 1.882805,1.046985 1.882805,1.046985 l 7.342188,0.06615 -0.132292,3.373438 -9.988021,-0.06615 -2.778125,2.620529 h 17.844702 c 0,0 1.205563,-2.188255 2.065194,-3.281987 0.859631,-1.09373 1.009152,-2.703569 1.560102,-3.938028 0.550949,-1.234456 0.302297,-0.0015 0.125643,-1.147747 -0.176654,-1.146263 -0.545216,-1.819413 -0.545216,-1.819413 l -9.171573,0.04345 0.859896,-3.955455 9.789583,-0.132291 2.077919,-2.606505 z"
     transform="translate(-21.567433,47.571705)"
     sodipodi:nodetypes="ccccccccccssscccccc"
     inkscape:export-xdpi="96"
     inkscape:export-ydpi="96" />
  <path
     style="fill:#00be12;fill-opacity:1;stroke:#000000;stroke-width:0;stroke-linecap:butt;stroke-linejoin:miter;stroke-miterlimit:4;stroke-dasharray:none;stroke-opacity:1"
     d="m -29.606782,199.76065 3.274052,-16.7912 12.043833,0.0234 -1.180997,2.99342 -7.460161,-0.0351 -1.122532,3.7067 7.460161,-0.10524 -1.660412,2.25676 -6.396094,0.12862 -2.221677,7.9045 -2.736173,-0.0819 z"
     id="path5973"
     inkscape:connector-curvature="0"
     inkscape:path-effect="#path-effect5975"
     inkscape:original-d="m -29.606782,199.76065 c 0,0 3.274052,-16.7912 3.274052,-16.7912 0,0 12.043833,0.0234 12.043833,0.0234 0,0 -1.180997,2.99342 -1.180997,2.99342 0,0 -7.460161,-0.0351 -7.460161,-0.0351 0,0 -1.122532,3.7067 -1.122532,3.7067 0,0 7.460161,-0.10524 7.460161,-0.10524 0,0 -1.660412,2.25676 -1.660412,2.25676 0,0 -6.396094,0.12862 -6.396094,0.12862 0,0 -2.221677,7.9045 -2.221677,7.9045 0,0 -2.736173,-0.0819 -2.736173,-0.0819 z"
     transform="translate(-25.796875,-63.103125)"
     inkscape:export-xdpi="96"
     inkscape:export-ydpi="96" />
  <path
     style="fill:none;stroke:#000000;stroke-width:0.26458332px;stroke-linecap:butt;stroke-linejoin:miter;stroke-opacity:1"
     d="m -35.321875,72.306499 -2.513541,16.837978 h 7.408333 l 2.116667,-7.912196 6.482291,-0.132291 1.719792,-2.248959 -7.540625,0.132292 1.058333,-3.704167 H -19.05 l 1.190625,-2.972657 z"
     id="path5885"
     inkscape:connector-curvature="0"
     inkscape:path-effect="#path-effect5887"
     inkscape:original-d="m -35.321875,72.306499 c 0,0 -2.513541,16.837978 -2.513541,16.837978 0,0 7.408333,0 7.408333,0 0,0 2.116667,-7.912196 2.116667,-7.912196 0,0 6.482291,-0.132291 6.482291,-0.132291 0,0 1.719792,-2.248959 1.719792,-2.248959 0,0 -7.540625,0.132292 -7.540625,0.132292 0,0 1.058333,-3.704167 1.058333,-3.704167 0,0 7.540625,0 7.540625,0 0,0 1.190625,-2.972657 1.190625,-2.972657 0,0 -17.4625,0 -17.4625,0 z"
     transform="translate(-22.162745,47.571705)"
     inkscape:export-xdpi="96"
     inkscape:export-ydpi="96" />
  <ellipse
     style="opacity:0.01000001;fill:#000000;fill-opacity:0.27843137;stroke:none;stroke-width:0;stroke-miterlimit:4;stroke-dasharray:none"
     id="path5894"
     cx="23.152222"
     cy="78.153015"
     rx="0.514494"
     ry="3.5079091" />
  <path
     style="fill:#00be12;fill-opacity:1;stroke:#000000;stroke-width:0;stroke-linecap:butt;stroke-linejoin:miter;stroke-miterlimit:4;stroke-dasharray:none;stroke-opacity:1"
     d="m 16.978297,183.06299 -6.61425,10.0246 -0.3781893,6.71984 1.9176583,0.0935 9.027029,-16.76782 -3.952248,-0.0702 z"
     id="path5985"
     inkscape:connector-curvature="0"
     inkscape:path-effect="#path-effect5987"
     inkscape:original-d="m 16.978297,183.06299 -6.61425,10.0246 -0.3781893,6.71984 1.9176583,0.0935 9.027029,-16.76782 -3.952248,-0.0702 z"
     sodipodi:nodetypes="ccccccc"
     transform="translate(-25.796875,-63.103125)"
     inkscape:export-xdpi="96"
     inkscape:export-ydpi="96" />
  <path
     style="fill:none;stroke:#000000;stroke-width:0.26458332px;stroke-linecap:butt;stroke-linejoin:miter;stroke-opacity:1"
     d="M -2.6192413,72.306499 1.1693042,89.144477 H 8.3254457 L 17.352474,72.306499 H 13.37684 L 6.8287365,82.128653 4.8175333,72.306499 Z"
     id="path5911"
     inkscape:connector-curvature="0"
     inkscape:path-effect="#path-effect5913"
     inkscape:original-d="m -2.6192413,72.306499 c 0,0 3.7885455,16.837978 3.7885455,16.837978 0,0 7.1561415,0 7.1561415,0 0,0 9.0270283,-16.837978 9.0270283,-16.837978 0,0 -3.975634,0 -3.975634,0 0,0 -6.5481035,9.822154 -6.5481035,9.822154 0,0 -2.0112032,-9.822154 -2.0112032,-9.822154 0,0 -7.4367746,0 -7.4367746,0 z"
     transform="translate(-22.208755,47.684635)"
     inkscape:export-xdpi="96"
     inkscape:export-ydpi="96" />
</svg>
