<?xml version="1.0" encoding="UTF-8" standalone="no"?>
<!-- Created with Inkscape (http://www.inkscape.org/) -->

<svg
   xmlns:dc="http://purl.org/dc/elements/1.1/"
   xmlns:cc="http://creativecommons.org/ns#"
   xmlns:rdf="http://www.w3.org/1999/02/22-rdf-syntax-ns#"
   xmlns:svg="http://www.w3.org/2000/svg"
   xmlns="http://www.w3.org/2000/svg"
   xmlns:sodipodi="http://sodipodi.sourceforge.net/DTD/sodipodi-0.dtd"
   xmlns:inkscape="http://www.inkscape.org/namespaces/inkscape"
   width="210mm"
   height="297mm"
   viewBox="0 0 210 297"
   version="1.1"
   id="svg8"
   inkscape:version="0.92.4 (5da689c313, 2019-01-14)"
   sodipodi:docname="NVSletteringNEWgreen.svg">
  <defs
     id="defs2">
    <inkscape:path-effect
       is_visible="true"
       id="path-effect5987"
       effect="spiro" />
    <inkscape:path-effect
       is_visible="true"
       id="path-effect5983"
       effect="spiro" />
    <inkscape:path-effect
       is_visible="true"
       id="path-effect5975"
       effect="spiro" />
    <inkscape:path-effect
       is_visible="true"
       id="path-effect5971"
       effect="spiro" />
    <inkscape:path-effect
       is_visible="true"
       id="path-effect5967"
       effect="spiro" />
    <inkscape:path-effect
       is_visible="true"
       id="path-effect5963"
       effect="spiro" />
    <inkscape:path-effect
       is_visible="true"
       id="path-effect5955"
       effect="spiro" />
    <inkscape:path-effect
       effect="spiro"
       id="path-effect5951"
       is_visible="true" />
    <inkscape:path-effect
       effect="spiro"
       id="path-effect5945"
       is_visible="true" />
    <inkscape:path-effect
       effect="spiro"
       id="path-effect5941"
       is_visible="true" />
    <inkscape:path-effect
       effect="spiro"
       id="path-effect5937"
       is_visible="true" />
    <inkscape:path-effect
       effect="spiro"
       id="path-effect5933"
       is_visible="true" />
    <inkscape:path-effect
       is_visible="true"
       id="path-effect5913"
       effect="spiro" />
    <inkscape:path-effect
       is_visible="true"
       id="path-effect5906"
       effect="spiro" />
    <inkscape:path-effect
       is_visible="true"
       id="path-effect5902"
       effect="spiro" />
    <inkscape:path-effect
       is_visible="true"
       id="path-effect5891"
       effect="spiro" />
    <inkscape:path-effect
       is_visible="true"
       id="path-effect5887"
       effect="spiro" />
    <inkscape:path-effect
       is_visible="true"
       id="path-effect5883"
       effect="spiro" />
    <inkscape:path-effect
       is_visible="true"
       id="path-effect5879"
       effect="spiro" />
    <inkscape:path-effect
       is_visible="true"
       id="path-effect5875"
       effect="spiro" />
    <inkscape:path-effect
       is_visible="true"
       id="path-effect5843"
       effect="spiro" />
    <inkscape:path-effect
       is_visible="true"
       id="path-effect3897"
       effect="spiro" />
    <inkscape:path-effect
       is_visible="true"
       id="path-effect3892"
       effect="spiro" />
    <inkscape:path-effect
       is_visible="true"
       id="path-effect3887"
       effect="spiro" />
    <inkscape:path-effect
       is_visible="true"
       id="path-effect3876"
       effect="spiro" />
    <inkscape:path-effect
       is_visible="true"
       id="path-effect3871"
       effect="spiro" />
    <inkscape:path-effect
       is_visible="true"
       id="path-effect3862"
       effect="spiro" />
  </defs>
  <sodipodi:namedview
     id="base"
     pagecolor="#ffffff"
     bordercolor="#666666"
     borderopacity="1.0"
     inkscape:pageopacity="0.0"
     inkscape:pageshadow="2"
     inkscape:zoom="0.35"
     inkscape:cx="-40"
     inkscape:cy="560"
     inkscape:document-units="mm"
     inkscape:current-layer="layer1"
     showgrid="false"
     inkscape:window-width="1920"
     inkscape:window-height="1017"
     inkscape:window-x="1352"
     inkscape:window-y="-8"
     inkscape:window-maximized="1" />
  <metadata
     id="metadata5">
    <rdf:RDF>
      <cc:Work
         rdf:about="">
        <dc:format>image/svg+xml</dc:format>
        <dc:type
           rdf:resource="http://purl.org/dc/dcmitype/StillImage" />
        <dc:title></dc:title>
      </cc:Work>
    </rdf:RDF>
  </metadata>
  <g
     inkscape:label="Layer 1"
     inkscape:groupmode="layer"
     id="layer1">
    <g
       id="g3980"
       transform="translate(11.339329,129.24837)"
       inkscape:transform-center-x="45.357126"
       inkscape:transform-center-y="-24.190457"
       style="fill:#6bdf2e;fill-opacity:0.99468082">
      <g
         inkscape:label="N"
         id="layer2"
         style="fill:#6bdf2e;fill-opacity:0.99468082">
        <path
           inkscape:export-ydpi="94.8965"
           inkscape:export-xdpi="94.8965"
           transform="translate(-0.20045212,0.13363473)"
           inkscape:original-d="m 7.3499119,26.014112 c 0,0 6.8156371,-10.557411 10.2230591,-15.835719 3.407422,-5.2783087 0.534804,-0.7129836 0.801809,-1.0690784 0.267005,-0.3560948 0.672472,-0.3688503 1.008311,-0.5528789 0.33584,-0.1840283 3.339054,0.5037037 5.008185,0.7559524 1.66913,0.2522487 0.2008,0.1889882 0.2008,0.1889882 0,0 0.377976,11.0558037 0.377976,11.0558037 0,0 2.425612,-4.9927 3.638021,-7.488653 1.212408,-2.495954 0.771966,-0.834962 1.157552,-1.252047 0.385585,-0.417084 1.811401,-0.425487 2.716704,-0.637834 0.905304,-0.212347 2.047634,0.676942 3.071056,1.015811 1.023422,0.338868 0.259858,0.87407 0.259858,0.87407 0,0 -5.622131,8.882175 -8.433594,13.32366 -2.811461,4.441484 -0.40921,0.440709 -0.614211,0.661458 -0.205,0.22075 -1.826619,0.850183 -2.740327,1.27567 -0.913707,0.425488 -1.873867,0.04698 -2.811197,0.07087 -0.937331,0.02389 -0.5667,-0.267999 -0.850447,-0.401601 -0.283747,-0.133601 -0.307105,-0.566965 -0.307105,-0.566965 0,0 -1.937129,-8.906063 -1.937129,-8.906063 0,0 -4.992171,6.472577 -7.488653,9.709264 -2.496482,3.236685 -0.251719,0.283215 -0.377976,0.425223 C 10.126348,28.802047 7.3499119,26.01411 7.3499119,26.01411 Z"
           inkscape:path-effect="#path-effect3862"
           inkscape:connector-curvature="0"
           id="path3860"
           d="M 7.3499119,26.014112 C 10.937081,20.854333 14.347433,15.57163 17.572971,10.178393 c 0.22966,-0.3840018 0.464122,-0.7755337 0.801809,-1.0690784 0.290951,-0.2529178 0.645941,-0.4213183 1.008311,-0.5528789 0.832736,-0.3023299 1.736063,-0.4242514 2.614226,-0.3072792 0.878163,0.1169722 1.72892,0.4779314 2.393959,1.0632316 0.06901,0.060738 0.135995,0.1237804 0.2008,0.1889882 L 24.970052,20.55718 c 0.793689,-2.672217 2.028016,-5.213006 3.638021,-7.488653 0.330115,-0.466599 0.68481,-0.930791 1.157552,-1.252047 0.390062,-0.26507 0.845898,-0.421507 1.309142,-0.509914 0.463244,-0.08841 0.93625,-0.111329 1.407562,-0.12792 0.565416,-0.0199 1.138953,-0.03021 1.688385,0.104755 0.274716,0.06748 0.541765,0.171549 0.781046,0.322437 0.239282,0.150888 0.450409,0.349545 0.601625,0.588619 0.164549,0.260154 0.255558,0.566275 0.259858,0.87407 -2.170095,4.806213 -5.018179,9.305708 -8.433594,13.32366 -0.195003,0.229404 -0.392415,0.457843 -0.614211,0.661458 -0.751088,0.689519 -1.743928,1.059433 -2.740327,1.27567 -0.9235,0.200416 -1.889936,0.281339 -2.811197,0.07087 -0.309555,-0.07072 -0.622654,-0.180387 -0.850447,-0.401601 -0.156585,-0.152063 -0.265284,-0.352738 -0.307105,-0.566965 l -1.937129,-8.906063 c -2.428347,3.288021 -4.925288,6.525381 -7.488653,9.709264 -0.11904,0.147856 -0.238764,0.29618 -0.377976,0.425223 -0.3581277,0.331966 -0.8432332,0.523387 -1.3315495,0.525426 -0.4883163,0.002 -0.9750031,-0.185326 -1.3358899,-0.51429 C 7.2242777,28.342214 6.9927679,27.87491 6.9497013,27.388493 6.9066346,26.902075 7.052438,26.401365 7.3499119,26.01411 Z"
           style="fill:#6bdf2e;fill-opacity:0.99468082;stroke:#000000;stroke-width:0.26458332px;stroke-linecap:butt;stroke-linejoin:miter;stroke-opacity:1" />
        <path
           inkscape:export-ydpi="94.8965"
           inkscape:export-xdpi="94.8965"
           sodipodi:nodetypes="ccscsssscsscssscsccccsccc"
           inkscape:original-d="m 44.166289,13.753123 c 0.244731,-0.690182 -0.267004,-0.490259 -0.200453,-0.835218 0.06655,-0.344958 -0.823815,-1.091615 -1.23612,-1.637025 -0.412306,-0.545411 -1.469718,-0.490259 -2.204974,-0.734992 -0.735256,-0.244732 -2.672432,1.313811 -4.009044,1.971113 -1.336611,0.657302 -1.603351,3.986506 -2.405425,5.980156 -0.802073,1.99365 0.712984,4.676952 1.069078,7.015825 0.356095,2.338872 1.893425,2.093346 2.839739,3.140416 0.946314,1.04707 2.249784,0.222462 3.374279,0.334087 1.124492,0.111628 1.470244,-0.735256 2.204971,-1.102487 0.734727,-0.367231 9.510607,-8.976065 14.265513,-13.463702 4.754904,-4.4876358 0.200716,-0.334351 0.300678,-0.50113 0.09996,-0.166779 -1.692442,-2.272056 -2.539061,-3.407686 -0.846619,-1.1356312 -1.29154,0.267005 -1.937705,0.400904 -0.646165,0.133899 -1.581079,1.224721 -2.372016,1.837478 -0.790937,0.612757 -1.870623,2.293799 -2.80633,3.441095 -0.935709,1.147296 -3.006518,3.496512 -4.510174,5.245165 -1.503656,1.748652 -1.491991,1.336082 -2.238381,2.004521 -0.746392,0.668438 -0.222461,0.08882 -0.334089,0.133635 -0.111625,0.04481 -0.289277,-0.312079 -0.434311,-0.467722 -0.145036,-0.155643 -0.422912,-1.381157 -0.634767,-2.071339 -0.211852,-0.690181 1.648427,-3.318861 2.405427,-4.944486 0.756999,-1.625625 0.133898,-0.152459 0.267269,-0.196749 0.133372,-0.04428 0.891164,-1.451677 1.135896,-2.141859 z"
           inkscape:path-effect="#path-effect3871"
           inkscape:connector-curvature="0"
           id="path3869"
           d="m 44.166289,13.753123 c -0.01507,-0.287209 -0.09389,-0.568085 -0.200453,-0.835218 -0.256558,-0.643145 -0.681717,-1.222182 -1.23612,-1.637025 -0.630535,-0.47181 -1.417577,-0.721398 -2.204974,-0.734992 -0.767955,-0.01326 -1.532503,0.192514 -2.214248,0.546287 -0.681745,0.353772 -1.282705,0.85238 -1.794796,1.424826 -1.456019,1.627623 -2.168922,3.809162 -2.405425,5.980156 -0.25956,2.382647 0.02618,4.857878 1.069078,7.015825 0.625271,1.293798 1.556882,2.492994 2.839739,3.140416 1.032658,0.521154 2.261352,0.649326 3.374279,0.334087 0.79358,-0.224783 1.50937,-0.659276 2.204971,-1.102487 5.553135,-3.538254 10.578671,-8.008085 14.265513,-13.463702 0.109189,-0.161573 0.217603,-0.324702 0.300678,-0.50113 0.178216,-0.378483 0.233114,-0.811716 0.168568,-1.225049 -0.06455,-0.413333 -0.246609,-0.805857 -0.509734,-1.131089 -0.526249,-0.650463 -1.362212,-1.010629 -2.197895,-1.051548 -0.665149,-0.03257 -1.332453,0.123138 -1.937705,0.400904 -0.914745,0.419801 -1.681492,1.105243 -2.372016,1.837478 -1.015917,1.077284 -1.896257,2.273022 -2.80633,3.441095 -1.417812,1.819753 -2.914036,3.579622 -4.510174,5.245165 -0.694234,0.724422 -1.412253,1.435082 -2.238381,2.004521 -0.05031,0.03468 -0.101276,0.06897 -0.156806,0.09446 -0.05553,0.02549 -0.116248,0.04199 -0.177283,0.03918 -0.05641,-0.0026 -0.111464,-0.02176 -0.1595,-0.05145 -0.04804,-0.02969 -0.08925,-0.06965 -0.123677,-0.114413 -0.06886,-0.08952 -0.110286,-0.19657 -0.151134,-0.301862 -0.261861,-0.674985 -0.539359,-1.353653 -0.634767,-2.071339 -0.126729,-0.95329 0.08101,-1.937763 0.522415,-2.792153 0.441407,-0.85439 1.108967,-1.581652 1.883012,-2.152333 0.08904,-0.06565 0.179546,-0.129343 0.267269,-0.196749 0.333365,-0.256157 0.627486,-0.568522 0.834299,-0.93455 0.206813,-0.366029 0.323624,-0.787472 0.301597,-1.207309 z"
           style="fill:#6bdf2e;fill-opacity:0.99468082;stroke:#000000;stroke-width:0.26458332px;stroke-linecap:butt;stroke-linejoin:miter;stroke-opacity:1" />
      </g>
      <g
         inkscape:label="V"
         id="layer3"
         style="fill:#6bdf2e;fill-opacity:0.99468082" />
      <g
         inkscape:label="S"
         id="layer4"
         style="fill:#6bdf2e;fill-opacity:0.99468082">
        <path
           inkscape:export-ydpi="94.8965"
           inkscape:export-xdpi="94.8965"
           sodipodi:nodetypes="cccccssccsscsccccsssccscssccc"
           inkscape:original-d="m 72.902156,14.43869 c 0,0 -1.574636,0.40921 -2.362351,0.614212 -0.787715,0.205001 -2.015606,1.039169 -3.023809,1.559151 -1.0082,0.519982 -0.236236,0.09449 -0.236236,0.09449 0,0 0.850712,0.283218 1.27567,0.425224 0.42496,0.142005 4.315494,1.133664 6.472843,1.700892 2.157349,0.567229 1.543667,0.88168 2.315104,1.322917 0.771438,0.441237 0.56723,1.732126 0.850445,2.598586 0.283218,0.86646 -1.448644,1.763625 -2.173361,2.645834 -0.72472,0.882209 -4.755936,1.795121 -7.134302,2.69308 -2.378363,0.897958 -8.189219,-2.65e-4 -12.284226,0 -4.095006,2.64e-4 -0.598196,-0.283747 -0.897694,-0.425223 -0.299495,-0.141478 -0.811533,-0.751792 -1.142526,-2.405173 -0.330994,-1.653381 0.339593,-2.619025 0.433821,-2.650255 0.09423,-0.03123 0.850712,0.09423 1.27567,0.141741 0.424958,0.04751 14.646577,0.661459 14.646577,0.661459 0,0 -1.511639,-0.378241 -2.267855,-0.566965 -0.756219,-0.188723 -4.692941,-1.260185 -7.039808,-1.88988 -2.346865,-0.629696 -1.921114,-1.0397 -2.882067,-1.559152 -0.960956,-0.519453 0.06326,-2.677596 0.09449,-4.015997 0.03123,-1.338401 0.724718,-0.535731 1.086681,-0.8032 0.361963,-0.267468 1.858648,-0.756217 2.787576,-1.133928 0.928926,-0.377712 9.260681,-2.047636 13.890625,-3.071057 4.629943,-1.0234206 1.575165,0.157226 2.362351,0.236235 0.787185,0.07901 0.189251,2.078605 0.283482,3.118304 0.09423,1.039699 -2.582574,1.228158 -3.874257,1.842634 -1.291682,0.614476 -1.070668,-0.126257 -1.606399,-0.188988 -0.535731,-0.06273 -0.850447,-0.944941 -0.850447,-0.944941 z"
           inkscape:path-effect="#path-effect3876"
           inkscape:connector-curvature="0"
           id="path3874"
           d="m 72.902156,14.43869 c -0.812753,0.08179 -1.612684,0.289777 -2.362351,0.614212 -1.041318,0.450654 -1.977545,1.120101 -3.023809,1.559151 -0.07821,0.03282 -0.156968,0.06432 -0.236236,0.09449 0.420803,0.154571 0.846286,0.296399 1.27567,0.425224 2.137685,0.641356 4.367785,0.95943 6.472843,1.700892 0.846058,0.298006 1.690883,0.678737 2.315104,1.322917 0.329571,0.340108 0.590107,0.749316 0.742787,1.197623 0.152681,0.448307 0.195829,0.93565 0.107658,1.400963 -0.109321,0.576925 -0.415836,1.103922 -0.808755,1.54028 -0.392918,0.436359 -0.870432,0.788402 -1.364606,1.105554 -2.150473,1.380137 -4.640664,2.135331 -7.134302,2.69308 -4.04667,0.905114 -8.352537,1.317795 -12.284226,0 -0.315364,-0.105702 -0.632181,-0.224897 -0.897694,-0.425223 -0.361484,-0.272735 -0.602681,-0.67827 -0.765576,-1.100786 -0.162895,-0.422517 -0.255593,-0.868122 -0.37695,-1.304387 -0.132751,-0.477225 -0.301949,-0.956087 -0.288982,-1.451262 0.0065,-0.247588 0.06045,-0.496817 0.180789,-0.713291 0.120337,-0.216473 0.310274,-0.398306 0.542014,-0.485702 0.204528,-0.07713 0.431313,-0.07838 0.646693,-0.04106 0.215379,0.03732 0.422332,0.11153 0.628977,0.182799 4.684145,1.615502 9.835881,1.848161 14.646577,0.661459 -0.755899,-0.189198 -1.511851,-0.378186 -2.267855,-0.566965 -2.35761,-0.588711 -4.717105,-1.175767 -7.039808,-1.88988 -0.52953,-0.162803 -1.059193,-0.333032 -1.557295,-0.575522 -0.498102,-0.24249 -0.966589,-0.561005 -1.324772,-0.98363 -0.473831,-0.559079 -0.735986,-1.29402 -0.719798,-2.026702 0.01619,-0.732682 0.311253,-1.456341 0.814288,-1.989295 0.310399,-0.328861 0.691822,-0.582783 1.086681,-0.8032 0.877368,-0.489763 1.83132,-0.825354 2.787576,-1.133928 4.517926,-1.457888 9.196371,-2.363194 13.890625,-3.071057 0.401034,-0.06047 0.805108,-0.119696 1.210351,-0.10349 0.405244,0.01621 0.816073,0.112485 1.152,0.339725 0.240775,0.162874 0.436586,0.389592 0.570939,0.64737 0.134353,0.257777 0.207804,0.545951 0.222537,0.836266 0.02947,0.580631 -0.176309,1.158585 -0.509994,1.634668 -0.42388,0.604768 -1.046064,1.053909 -1.724796,1.345012 -0.678733,0.291102 -1.413907,0.431451 -2.149461,0.497622 -0.54404,0.04894 -1.116774,0.05317 -1.606399,-0.188988 C 73.363524,15.1912 73.052679,14.845817 72.902153,14.43869 Z"
           style="fill:#6bdf2e;fill-opacity:0.99468082;stroke:#000000;stroke-width:0.26458332px;stroke-linecap:butt;stroke-linejoin:miter;stroke-opacity:1" />
      </g>
      <g
         inkscape:label="F"
         id="layer5"
         style="fill:#6bdf2e;fill-opacity:0.99468082">
        <path
           inkscape:export-ydpi="94.8965"
           inkscape:export-xdpi="94.8965"
           inkscape:original-d="m 134.97111,9.9111233 c 0,0 -1.51426,0.1779147 -2.27179,0.2672697 -0.75753,0.08935 -4.49877,0.13337 -6.74856,0.200452 -2.24978,0.06708 -3.8306,0.04428 -5.74629,0.06682 -1.9157,0.02254 -0.71245,0.177915 -1.06908,0.26727 -0.35662,0.08935 -2.36062,1.736987 -3.54132,2.605878 -1.18071,0.86889 -1.20245,1.469718 -1.80407,2.204973 -0.60162,0.735256 0.22299,1.202449 0.33409,1.80407 0.11109,0.60162 0.71298,0.311549 1.06908,0.467721 0.35609,0.156172 0.71298,-0.623893 1.06907,-0.935443 0.3561,-0.31155 0.31208,-0.133899 0.46772,-0.200452 0.15565,-0.06655 4.34313,-1.202713 4.34313,-1.202713 0,0 -2.00452,3.140417 -2.00452,3.140417 0,0 -0.35609,-2.65e-4 -0.53454,0 -0.17844,2.64e-4 -1.42517,0.445184 -2.13815,0.668174 -0.71299,0.222989 -0.31155,1.380628 -0.46772,2.071338 -0.15618,0.690711 0.93544,0.467722 0.93544,0.467722 0,0 -1.29154,2.716976 -1.93771,4.07586 -0.64616,1.358885 -0.13336,0.31155 -0.20045,0.467722 -0.0671,0.156171 0.66844,1.024269 1.00226,1.536799 0.33383,0.512532 6.08039,-0.734991 6.08039,-0.734991 0,0 1.5368,-4.810851 1.5368,-4.810851 0,0 2.94023,0.22246 4.40994,0.334087 1.46972,0.111627 0.49026,-0.133899 0.73499,-0.200452 0.24474,-0.06655 1.06935,-0.490259 1.60362,-0.734991 0.53428,-0.244733 0.46772,-3.474504 0.46772,-3.474504 0,0 -5.61266,0.26727 -5.61266,0.26727 0,0 1.87089,-3.274052 1.87089,-3.274052 0,0 1.69297,0.13337 2.53906,0.200452 0.84609,0.06708 1.82661,-0.04481 2.73951,-0.06682 0.91291,-0.02201 1.64843,-1.069342 2.47225,-1.603617 0.82381,-0.534274 0.89116,-2.13842 1.33634,-3.207234 0.44519,-1.0688135 -0.93544,-0.6681737 -0.93544,-0.6681747 z"
           inkscape:path-effect="#path-effect3887"
           inkscape:connector-curvature="0"
           id="path3885"
           d="m 134.97111,9.9111233 c -0.75522,0.1054787 -1.51272,0.1945967 -2.27179,0.2672697 -2.24193,0.214639 -4.49799,0.285649 -6.74856,0.200452 -1.91819,-0.07262 -3.85431,-0.257474 -5.74629,0.06682 -0.36251,0.06214 -0.72287,0.143106 -1.06908,0.26727 -1.38908,0.498178 -2.4301,1.634835 -3.54132,2.605878 -0.3632,0.317383 -0.74013,0.621381 -1.06778,0.975351 -0.32764,0.35397 -0.60752,0.764795 -0.73629,1.229622 -0.16925,0.610961 -0.0522,1.301392 0.33409,1.80407 0.12599,0.163941 0.28094,0.30929 0.46653,0.40043 0.18559,0.09114 0.40389,0.124602 0.60255,0.06729 0.11512,-0.03321 0.22041,-0.0954 0.31355,-0.170766 0.0931,-0.07536 0.1748,-0.163853 0.25271,-0.254868 0.15583,-0.182032 0.30198,-0.379092 0.50281,-0.509809 0.14259,-0.09281 0.30603,-0.147532 0.46772,-0.200452 1.42818,-0.467423 2.87795,-0.868896 4.34313,-1.202713 l -2.00452,3.140417 c -0.1781,-0.0066 -0.35644,-0.0066 -0.53454,0 -0.75936,0.02808 -1.54648,0.191358 -2.13815,0.668174 -0.30439,0.245304 -0.54952,0.574654 -0.65097,0.952192 -0.0507,0.188769 -0.065,0.387908 -0.0355,0.581133 0.0295,0.193224 0.1033,0.380275 0.21874,0.538013 0.21385,0.292211 0.57336,0.471969 0.93544,0.467722 -0.57531,1.390706 -1.22236,2.751732 -1.93771,4.07586 -0.0809,0.14975 -0.16364,0.301544 -0.20045,0.467722 -0.0355,0.160355 -0.0264,0.32928 0.0178,0.487486 0.0441,0.158206 0.12252,0.305869 0.22177,0.436728 0.19851,0.261718 0.47556,0.453088 0.76272,0.612585 0.9537,0.529703 2.07635,0.749515 3.15939,0.618598 1.08305,-0.130917 2.12099,-0.6119 2.921,-1.353589 l 1.5368,-4.810851 c 1.39093,0.553488 2.9515,0.671714 4.40994,0.334087 0.24745,-0.05728 0.49178,-0.127252 0.73499,-0.200452 0.56665,-0.170544 1.14115,-0.365809 1.60362,-0.734991 0.5042,-0.402496 0.84499,-1.004012 0.93106,-1.643399 0.0861,-0.639386 -0.0835,-1.309606 -0.46334,-1.831105 l -5.61266,0.26727 1.87089,-3.274052 c 0.84744,0.05199 1.69396,0.118826 2.53906,0.200452 0.91519,0.0884 1.8572,0.191881 2.73951,-0.06682 0.95065,-0.27874 1.72986,-0.947659 2.47225,-1.603617 0.47216,-0.417187 0.95181,-0.848005 1.25389,-1.40093 0.15104,-0.276462 0.25475,-0.581666 0.27766,-0.895863 0.0229,-0.314197 -0.0377,-0.637611 -0.19521,-0.910441 -0.19753,-0.342159 -0.54771,-0.5922886 -0.93544,-0.6681747 z"
           style="fill:#6bdf2e;fill-opacity:0.99468082;stroke:#000000;stroke-width:0.26458332px;stroke-linecap:butt;stroke-linejoin:miter;stroke-opacity:1" />
      </g>
      <g
         inkscape:label="P"
         id="layer6"
         style="fill:#6bdf2e;fill-opacity:0.99468082">
        <path
           inkscape:export-ydpi="94.8965"
           inkscape:export-xdpi="94.8965"
           inkscape:original-d="m 136.50791,12.249732 c 0,0 1.55934,-0.534804 2.33861,-0.801809 0.77927,-0.267005 5.52383,-0.757528 8.28535,-1.135895 2.76152,-0.3783678 4.05385,0.04428 6.08039,0.06682 2.02652,0.02254 1.69297,0.979724 2.53906,1.469982 0.84608,0.490259 0.9357,1.514263 1.40316,2.271791 0.46746,0.757528 -0.0443,1.202449 -0.0668,1.804069 -0.0225,0.601622 -1.20245,2.316072 -1.80407,3.474504 -0.60162,1.158433 -1.1579,0.756999 -1.73725,1.135896 -0.57935,0.378896 -3.96423,1.736987 -5.94675,2.605878 -1.98251,0.86889 -2.09334,-0.22299 -3.14041,-0.334087 -1.04707,-0.111098 -0.89063,-1.024798 -1.33635,-1.5368 -0.44571,-0.512002 0.35662,-0.534804 0.53454,-0.801808 0.17791,-0.267005 2.85114,-1.470247 4.27631,-2.204974 1.42517,-0.734727 1.73752,-1.202977 2.60588,-1.804069 0.86836,-0.601092 0.31208,-0.668439 0.46772,-1.002261 0.15564,-0.333822 -1.00226,-0.935444 -1.00226,-0.935444 0,0 -3.4745,0.200453 -3.4745,0.200453 0,0 -5.14494,9.755337 -5.14494,9.755337 0,0 2.6e-4,0.31155 0,0.467722 -2.7e-4,0.156172 -0.57882,1.870621 -0.86863,2.806331 -0.2898,0.935707 -2.22698,0.311549 -3.34087,0.46772 -1.11388,0.156173 -1.42517,-0.980252 -2.13815,-1.469983 -0.71299,-0.489728 0.0894,-1.158431 0.13363,-1.737251 0.0443,-0.578819 5.61266,-9.087164 5.61266,-9.087164 0,0 -1.46972,0.48973 -2.20497,0.734992 -0.73526,0.245261 -1.60335,1.157903 -2.40543,1.737252 -0.80207,0.579348 -0.40064,0.04428 -0.60135,0.06682 -0.20072,0.02254 -0.97973,-0.623893 -1.46999,-0.935443 -0.49026,-0.31155 0.22299,-1.336612 0.33409,-2.004522 0.1111,-0.667909 2.07134,-3.274051 2.07134,-3.274051 z"
           inkscape:path-effect="#path-effect3892"
           inkscape:connector-curvature="0"
           id="path3890"
           d="m 136.50791,12.249732 c 0.76047,-0.319091 1.54234,-0.587161 2.33861,-0.801809 2.69489,-0.726447 5.51081,-0.832511 8.28535,-1.135895 2.03084,-0.222064 4.13142,-0.5456788 6.08039,0.06682 0.9404,0.295538 1.81135,0.805046 2.53906,1.469982 0.66848,0.610824 1.23052,1.382874 1.40316,2.271791 0.11546,0.594536 0.0516,1.210119 -0.0668,1.804069 -0.25976,1.302636 -0.81121,2.592141 -1.80407,3.474504 -0.5182,0.460529 -1.1349,0.792682 -1.73725,1.135896 -1.89422,1.079314 -3.78327,2.336957 -5.94675,2.605878 -1.05388,0.130997 -2.13741,0.01493 -3.14041,-0.334087 -0.35033,-0.121905 -0.69902,-0.277083 -0.96538,-0.535241 -0.13317,-0.129079 -0.24377,-0.283177 -0.31204,-0.455625 -0.0683,-0.172448 -0.093,-0.363629 -0.0589,-0.545934 0.0301,-0.160788 0.10474,-0.310936 0.20057,-0.443505 0.0958,-0.13257 0.21259,-0.248651 0.33397,-0.358303 1.19611,-1.080491 2.80908,-1.537601 4.27631,-2.204974 0.96928,-0.440879 1.9093,-0.998678 2.60588,-1.804069 0.12328,-0.142542 0.23901,-0.293213 0.32543,-0.460687 0.0864,-0.167474 0.1429,-0.353115 0.14229,-0.541574 -8.3e-4,-0.256017 -0.11161,-0.509841 -0.29878,-0.684528 -0.18716,-0.174686 -0.44801,-0.267726 -0.70348,-0.250916 l -3.4745,0.200453 -5.14494,9.755337 c 0.002,0.155901 0.002,0.311821 0,0.467722 -0.005,0.503613 -0.0287,1.011229 -0.15129,1.499716 -0.12261,0.488488 -0.35117,0.960817 -0.71734,1.306615 -0.4266,0.40287 -1.01318,0.606943 -1.59801,0.65449 -0.58484,0.04755 -1.17216,-0.05041 -1.74286,-0.18677 -0.43963,-0.105039 -0.87922,-0.235396 -1.26733,-0.467094 -0.38811,-0.231698 -0.72413,-0.575347 -0.87082,-1.002889 -0.0959,-0.279517 -0.10743,-0.582714 -0.0715,-0.876037 0.0359,-0.293323 0.11776,-0.578924 0.20516,-0.861214 1.06435,-3.437523 3.01543,-6.596422 5.61266,-9.087164 -0.78606,0.01914 -1.56465,0.278666 -2.20497,0.734992 -0.4063,0.289552 -0.75372,0.652493 -1.1295,0.980692 -0.37578,0.328199 -0.79369,0.628635 -1.27593,0.75656 -0.19566,0.0519 -0.39907,0.07432 -0.60135,0.06682 -0.30679,-0.01137 -0.61303,-0.09311 -0.87534,-0.25261 -0.26231,-0.159501 -0.47879,-0.398536 -0.59465,-0.682833 -0.13197,-0.323845 -0.1292,-0.690591 -0.0509,-1.031421 0.0783,-0.34083 0.22803,-0.660611 0.38501,-0.973101 0.58065,-1.155862 1.27557,-2.254284 2.07134,-3.274051 z"
           style="fill:#6bdf2e;fill-opacity:0.99468082;stroke:#000000;stroke-width:0.26458332px;stroke-linecap:butt;stroke-linejoin:miter;stroke-opacity:1" />
      </g>
      <g
         inkscape:label="V 1"
         id="layer7"
         style="fill:#6bdf2e;fill-opacity:0.99468082">
        <path
           inkscape:export-ydpi="94.8965"
           inkscape:export-xdpi="94.8965"
           inkscape:original-d="m 163.90304,23.408234 c 0,0 1.64842,-1.202977 2.47224,-1.804069 0.82382,-0.601092 2.04933,-2.539325 3.0736,-3.808591 1.02427,-1.269265 2.09388,-2.672959 3.14042,-4.009043 1.04654,-1.336083 2.2275,-1.960241 3.34086,-2.939964 1.11336,-0.9797241 2.13842,-0.267535 3.20724,-0.400905 1.06881,-0.13337 0.93571,1.157904 1.40317,1.737252 0.46745,0.579349 -0.17792,1.870622 -0.26728,2.80633 -0.0893,0.935708 -0.44518,0.534275 -0.66817,0.801809 -0.22299,0.267534 -9.93325,8.507815 -14.90027,12.762119 -4.96703,4.254306 -0.62337,0.267006 -0.93545,0.400904 -0.31208,0.1339 -3.69696,-1.648425 -5.54584,-2.472243 -1.84888,-0.823816 -1.20245,-3.920217 -1.80407,-5.879929 -0.60162,-1.959712 1.11389,-4.365666 1.67043,-6.548103 0.55655,-2.182437 1.55934,-1.960241 2.33861,-2.939965 0.77927,-0.979723 2.04933,-0.356624 3.0736,-0.534539 1.02427,-0.177915 1.69297,1.291538 2.53906,1.937704 0.84609,0.646166 -0.53427,2.226982 -0.80181,3.340869 -0.26753,1.113888 -1.1579,1.024269 -1.73725,1.5368 -0.57935,0.512531 -0.35609,0.578819 -0.53454,0.868626 -0.17844,0.289806 0.93545,5.144938 0.93545,5.144938 z"
           inkscape:path-effect="#path-effect3897"
           inkscape:connector-curvature="0"
           id="path3895"
           d="m 163.90304,23.408234 c 0.89786,-0.490414 1.73131,-1.098604 2.47224,-1.804069 1.18334,-1.126691 2.11674,-2.484149 3.0736,-3.808591 0.99446,-1.376489 2.02434,-2.729186 3.14042,-4.009043 0.97974,-1.123514 2.0441,-2.204719 3.34086,-2.939964 0.48784,-0.276597 1.01072,-0.503465 1.56357,-0.597532 0.55285,-0.09407 1.13934,-0.04861 1.64367,0.196627 0.34382,0.167189 0.64136,0.422982 0.87583,0.724957 0.23447,0.301975 0.4071,0.649378 0.52734,1.012295 0.15275,0.461042 0.22221,0.951612 0.18295,1.435711 -0.0393,0.484098 -0.18881,0.961286 -0.45023,1.370619 -0.18755,0.293678 -0.42885,0.548529 -0.66817,0.801809 -4.51621,4.779703 -9.02325,9.812148 -14.90027,12.762119 -0.30354,0.15236 -0.61138,0.299284 -0.93545,0.400904 -1.03324,0.323999 -2.18379,0.159093 -3.15285,-0.324118 -0.96906,-0.483211 -1.76715,-1.264442 -2.39299,-2.148125 -1.20373,-1.699675 -1.79967,-3.797178 -1.80407,-5.879929 -0.005,-2.272499 0.67059,-4.50737 1.67043,-6.548103 0.55846,-1.139841 1.25941,-2.271803 2.33861,-2.939965 0.90529,-0.560488 2.02933,-0.742343 3.0736,-0.534539 0.54451,0.108353 1.07181,0.32053 1.52003,0.648139 0.44821,0.327609 0.81499,0.773235 1.01903,1.289565 0.22251,0.563074 0.24517,1.197868 0.0936,1.784031 -0.15158,0.586162 -0.47289,1.123208 -0.89541,1.556838 -0.54035,0.554559 -1.23976,0.943483 -1.73725,1.5368 -0.21913,0.261337 -0.3945,0.557656 -0.53454,0.868626 -0.38052,0.844964 -0.49802,1.806175 -0.33225,2.71792 0.16577,0.911745 0.6141,1.770076 1.2677,2.427018 z"
           style="fill:#6bdf2e;fill-opacity:0.99468082;stroke:#000000;stroke-width:0.26458332px;stroke-linecap:butt;stroke-linejoin:miter;stroke-opacity:1" />
      </g>
    </g>
  </g>
</svg>
